PathFileType	4	(X/Y/Z)	C:/Users/opensim2020/Desktop/walking_exp_matlab/subject01_walking14_straight_02.trc																																																																																																																												
DataRate	CameraRate	NumFrames	NumMarkers	Units	OrigDataRate	OrigDataStartFrame	OrigNumFrames																																																																																																																								
100	100	9	42	mm	100	1240	125																																																																																																																								
Frame#	Time	LFHD			RFHD			LBHD			RBHD			C7			T10			CLAV			STRN			RBAK			LSHO			LUPA			LELB			LFRM			LWRA			LWRB			LFIN			RSHO			RUPA			RELB			RFRM			RWRA			RWRB			RFIN			LASI			RASI			LPSI			RPSI			LTHI			LKNE			LTIB			LANK			LHEE			LTOE			RTHI			RKNE			RTIB			RANK			RHEE			RTOE			*39			*40			*41		
		X1	Y1	Z1	X2	Y2	Z2	X3	Y3	Z3	X4	Y4	Z4	X5	Y5	Z5	X6	Y6	Z6	X7	Y7	Z7	X8	Y8	Z8	X9	Y9	Z9	X10	Y10	Z10	X11	Y11	Z11	X12	Y12	Z12	X13	Y13	Z13	X14	Y14	Z14	X15	Y15	Z15	X16	Y16	Z16	X17	Y17	Z17	X18	Y18	Z18	X19	Y19	Z19	X20	Y20	Z20	X21	Y21	Z21	X22	Y22	Z22	X23	Y23	Z23	X24	Y24	Z24	X25	Y25	Z25	X26	Y26	Z26	X27	Y27	Z27	X28	Y28	Z28	X29	Y29	Z29	X30	Y30	Z30	X31	Y31	Z31	X32	Y32	Z32	X33	Y33	Z33	X34	Y34	Z34	X35	Y35	Z35	X36	Y36	Z36	X37	Y37	Z37	X38	Y38	Z38	X39	Y39	Z39	X40	Y40	Z40	X41	Y41	Z41	X42	Y42	Z42
																																																																																																																															
94	0.93	245.99367	1661.45581	1045.26038	311.60977	1665	1138.02271	143.94232	1630.62195	1111.6051	211.31882	1633.60742	1209.82959	102.0118	1436.68835	1140.54382	53.51668	1142.78418	1139.55615	243.97308	1361.23523	1121.35791	278.58301	1206.9176	1116.77405	46.77197	1247.0426	1221.6377	164.9445	1395.27734	969.50079	97.27838	1220.54065	889.00238	54.64116	1075.88049	892.92645	71.79321	962.59918	865.91425	132.71593	835.57129	872.23816	74.41956	840.18433	861.08923	103.84908	763.53937	842.63354	196.47278	1404.27722	1276.09753	146.83876	1214.14075	1390.55603	161.7438	1087.51367	1407.90125	245.8629	993.58282	1428.69519	372.49619	937.87317	1396.25085	338.39871	912.98999	1434.44043	412.2338	869.85889	1432.95764	230.8605	936.47028	1026.14563	225.43706	935.61902	1244.69299	44.89936	943.9223	1071.62573	41.11366	956.98602	1214.59521	291.48724	618.67792	964.07935	318.7594	487.86499	985.49115	292.86453	300.84723	984.68365	312.9191	80.13659	1041.34668	283.50299	45.87802	1104.39758	454.35699	66.00127	1015.17993	113.84111	610.32721	1294.04956	89.36678	451.43369	1268.66638	-2.21685	299.9436	1271.18262	-72.104	104.3589	1220.75623	-127.4251	81.06889	1170.25122	55.89455	34.31977	1216.36292	294.64154	1699.62048	1121.72949	-1973.18823	1023.56842	3101.96899	-2012.51013	1021.94391	3140.69629
95	0.94	258.64267	1659.96912	1043.04199	324.67661	1663.81848	1135.51672	156.82281	1628.92932	1109.58484	224.60287	1632.40466	1207.755	115.03779	1435.43933	1139.42236	66.82592	1141.42944	1138.19592	257.27753	1359.78711	1119.79041	291.82626	1205.44324	1115.79309	60.11688	1245.87854	1220.55994	178.13234	1393.54089	967.92474	109.29251	1218.9657	888.15613	65.58315	1075.08447	893.0249	79.38324	961.54028	866.18622	136.73962	832.8075	872.56622	78.3968	839.05524	861.64044	105.49277	761.4527	843.17822	209.89207	1403.375	1274.52747	160.58286	1213.75806	1389.73291	175.74651	1087.29761	1407.74084	262.41049	995.60645	1427.70532	390.46304	943.98712	1394.8988	357.59647	918.19867	1433.33911	432.6196	876.95886	1431.02563	245.20532	934.94244	1026.07349	238.19733	934.41327	1244.5531	58.84912	942.69678	1070.28369	54.0277	956.2724	1213.17371	302.40802	615.44635	964.02472	331.57581	485.82556	986.57288	314.35806	298.9281	985.01764	347.28735	78.76894	1040.96338	319.51367	42.67941	1103.82178	489.67554	72.42661	1015.57611	122.33467	610.66284	1294.53284	96.07328	451.61206	1268.89661	2.1957	301.46777	1271.33875	-70.55164	106.73664	1221.1759	-126.17348	84.56516	1170.85925	56.17274	34.30376	1216.41296	307.59158	1698.57178	1119.3241	-1973.17004	1023.45111	3102.02441	-2012.5636	1022.13599	3140.66016
96	0.95	271.34705	1658.45056	1040.69641	337.63672	1662.63354	1132.95129	169.75705	1627.34302	1107.61035	237.8506	1631.11157	1205.55481	128.36897	1433.81421	1137.25525	80.23384	1139.86304	1136.69678	270.69989	1358.28113	1118.22668	305.16992	1204.02576	1114.64246	73.52689	1244.52905	1219.2533	191.37181	1391.74133	966.20532	121.32399	1217.29102	887.11737	76.30608	1074.15283	892.9389	87.24902	960.38995	866.33844	141.22285	830.09271	872.87421	82.97942	837.94684	862.20319	107.74128	759.70428	843.70184	223.31706	1402.33569	1272.81824	174.29395	1213.26709	1388.7511	189.68585	1086.9397	1407.36047	278.60983	997.64331	1426.91028	408.02646	949.81445	1393.5929	375.8439	922.79047	1431.83667	452.30222	883.73615	1429.14319	259.73221	933.36829	1025.96106	251.12776	933.01422	1244.41406	72.9631	941.3949	1068.90271	67.63376	955.2771	1211.58362	313.24445	611.93744	963.18958	344.96878	483.97629	987.46851	335.6749	297.43033	985.22754	378.95941	78.57326	1040.61243	352.74368	40.97286	1103.49744	521.88025	78.50967	1015.90979	131.5088	610.69806	1294.48938	103.52299	451.5928	1269.25671	7.08671	302.98346	1271.64844	-68.69299	109.07787	1221.86292	-124.72759	88.34379	1171.92163	56.26323	34.23653	1216.46106	320.38043	1697.16443	1116.69312	-1973.11047	1023.60388	3101.99902	-2012.62524	1022.20386	3140.62012
97	0.96	284.01877	1656.91736	1038.23975	350.45395	1661.25842	1130.1593	182.79201	1625.71729	1105.6825	251.14117	1629.77527	1203.29211	141.52072	1432.4314	1135.84473	93.83528	1138.21338	1135.21497	283.86627	1356.81091	1116.41626	318.67114	1202.56934	1113.35828	86.91118	1243.05225	1217.78931	204.73213	1389.80286	964.34393	133.5089	1215.41663	885.98071	86.90359	1073.0105	892.51782	95.52338	959.09491	866.36664	146.31541	827.58563	873.12323	88.14777	836.86157	862.61304	111.07636	757.89197	844.26221	236.66537	1401.29773	1270.9469	187.94498	1212.7561	1387.88257	203.41476	1086.44934	1406.82751	294.51617	999.21613	1425.79431	424.95776	955.2063	1392.24463	393.66632	927.09857	1430.38928	471.19977	890.03094	1427.30212	274.44037	931.6792	1025.88806	264.14548	931.59875	1244.22083	87.28717	939.94904	1067.29846	81.05855	954.22888	1210.04041	324.42322	608.36273	961.58704	358.79462	482.35852	988.17798	356.71262	296.26849	985.38611	407.62753	78.85162	1040.96655	382.95947	40.20111	1103.60986	550.90375	83.561	1016.48273	141.3559	610.27344	1294.21497	111.60542	451.27786	1269.2782	12.6327	304.39291	1272.0426	-66.9442	111.92553	1222.92871	-123.39095	92.29449	1172.93005	56.55364	34.12767	1216.51343	333.33258	1695.91431	1114.04309	-1973.17114	1023.52002	3101.87622	-2012.62256	1022.17944	3140.68677
98	0.97	296.69809	1655.3645	1035.71155	363.46057	1659.99268	1127.3877	195.66982	1624.17615	1103.45825	264.40518	1628.41406	1200.85498	154.81818	1430.68774	1133.38586	107.59841	1136.44153	1133.70789	297.24658	1355.18591	1114.51111	332.18619	1201.11279	1112.00671	100.39066	1241.51843	1216.1687	218.06145	1387.75146	962.36609	145.77806	1213.39441	884.68182	98.03265	1071.64575	892.16962	104.01991	957.74683	866.32788	151.80132	825.27942	873.26306	94.01397	835.65314	862.87976	114.97322	756.06268	844.80731	249.98584	1400.18127	1269.01819	201.37514	1212.10254	1386.46558	217.05283	1085.90979	1406.17236	310.00827	1000.75824	1424.7522	441.32852	960.11981	1390.86682	410.70676	930.87885	1428.7926	489.33234	895.83868	1425.42529	289.26859	929.95477	1025.77734	277.4837	930.19647	1243.94141	101.68172	938.48926	1065.56897	94.65881	952.95337	1208.39685	335.18939	604.92419	960.15289	372.61847	480.83472	988.76953	376.36862	295.15417	985.91748	433.58194	79.18314	1041.79858	409.70776	39.89851	1104.53406	576.68097	87.45582	1017.36664	152.04004	609.92157	1294.45264	120.65935	450.94714	1269.51611	18.8102	305.84695	1272.49353	-64.54296	114.6537	1223.78198	-121.59481	96.36294	1173.72986	56.84097	34.13289	1216.65967	346.13693	1694.65613	1111.23499	-1973.13135	1023.50391	3102.05005	-2012.49182	1022.0838	3140.77515
99	0.98	309.34491	1653.76099	1033.07251	376.53171	1658.81567	1124.65759	208.67349	1622.29407	1101.05225	277.72977	1626.97144	1198.37244	167.92656	1429.09436	1131.63074	121.46654	1134.60596	1132.2168	310.68869	1353.72864	1112.59851	345.81543	1199.68848	1110.51086	113.85717	1239.90149	1214.4082	231.39424	1385.65076	960.29541	158.06097	1211.36914	883.20978	109.31078	1070.25281	891.66644	113.08187	956.32428	866.1264	158.09511	822.8443	873.4212	100.54855	834.42847	863.09363	119.89217	754.32269	845.32507	263.17773	1399.03223	1266.96826	214.75722	1211.32837	1384.9657	230.55388	1085.27295	1405.3573	325.09943	1001.89038	1423.5979	457.16956	964.44781	1389.46863	427.26599	934.26166	1427.16211	506.7359	901.11426	1423.6283	304.24045	928.1687	1025.57568	290.8837	928.72607	1243.67871	116.80955	936.79523	1063.91577	108.09666	951.49048	1206.57324	347.36453	602.43134	959.40125	386.90326	479.34189	989.27515	394.57959	293.97946	986.78833	455.87604	78.97256	1043.03955	433.20505	39.22813	1106.42859	599.18304	90.21545	1018.87537	163.53326	609.41364	1294.70959	130.46965	450.39822	1269.91309	25.48559	307.43201	1273.0835	-62.07902	117.89468	1224.93579	-118.97818	101.24825	1174.96826	57.29792	34.26843	1216.93542	358.99088	1693.14307	1108.3418	-1973.07202	1023.45624	3102.14648	-2012.49219	1022.15466	3140.70825
100	0.99	322.5751	1652.30127	1030.50916	389.63104	1657.4093	1121.64441	221.69667	1620.59924	1098.6803	291.04306	1625.49158	1195.75989	181.41086	1427.4834	1129.01245	135.52174	1132.69458	1130.7406	324.28391	1352.30029	1110.54016	359.62958	1198.29138	1108.89246	127.43195	1238.24463	1212.51184	244.86552	1383.45166	958.00641	170.59776	1209.15967	881.67719	120.8997	1068.6543	890.99316	122.64659	954.7854	865.80591	165.05344	820.46558	873.52039	107.83577	833.27698	862.8222	125.45788	752.42041	845.80933	276.61661	1397.92798	1264.76868	228.03497	1210.5553	1383.52747	243.91971	1084.54163	1404.3595	339.80069	1002.90186	1422.39148	472.48444	968.21375	1388.08057	443.00879	936.83527	1425.29309	523.42877	905.70123	1421.76392	319.32846	926.22418	1025.48645	304.53122	927.31158	1243.42249	131.3143	935.14386	1061.85071	122.20318	949.83942	1204.59412	361.58658	601.01373	959.72095	401.15826	478.22348	989.90778	411.26559	292.48047	987.93011	475.0575	78.31004	1044.85071	452.64374	38.41499	1107.77673	618.51819	91.15509	1021.16034	175.74989	608.44373	1294.73352	141.15157	449.72702	1270.448	32.80966	309.07379	1273.77551	-59.00013	121.42686	1225.99255	-116.52913	106.56905	1176.25659	57.51536	34.05495	1217.04187	371.93646	1691.91431	1105.45276	-1973.13586	1023.50494	3102.05859	-2012.50757	1022.09814	3140.72729
101	1	334.8688	1650.62671	1027.51978	402.5083	1656.0863	1118.5238	234.68459	1618.90283	1096.19897	304.33832	1624.02112	1193.02429	194.77817	1425.53772	1126.39917	149.73488	1130.79553	1129.28125	337.79279	1350.65173	1108.26379	373.45959	1196.87085	1107.26172	141.07137	1236.52649	1210.4386	258.28983	1381.2085	955.60211	183.20712	1206.92676	880.03723	132.64441	1067.01807	890.28406	132.67804	953.16382	865.45862	172.92339	818.11737	873.53046	115.45967	831.79883	862.98969	131.94821	750.70148	846.17175	289.71127	1396.64795	1262.52771	241.11812	1209.6908	1381.7002	257.07593	1083.93103	1403.53271	354.27747	1003.44031	1420.96338	487.31271	971.38562	1386.68591	458.49612	939.14276	1423.39514	539.47736	909.63147	1420.01086	334.5813	924.3548	1025.24146	318.52203	925.8725	1243.17151	146.09723	933.35822	1059.979	136.00488	948.07611	1202.54663	377.17465	600.44183	961.14899	416.03708	477.28592	990.65137	426.68802	290.63892	989.27435	491.15863	76.98752	1046.91614	468.69385	37.10988	1109.97388	634.7644	90.07062	1024.10974	188.59134	607.5379	1295.06799	152.7038	448.78992	1271.18958	40.85218	310.80518	1274.52661	-55.3251	125.12401	1227.49316	-113.13348	112.3373	1177.65759	58.11749	34.19038	1217.40295	384.97913	1690.41858	1102.46521	-1973.06531	1023.80621	3102.00049	-2012.49011	1022.16034	3140.67236
102	1.01	347.55136	1649.02966	1024.63977	415.43091	1654.65454	1115.33728	247.66484	1617.19116	1093.7207	317.65759	1622.56079	1190.27478	207.83519	1423.81213	1124.20911	164.01894	1128.80444	1127.6925	351.4509	1349.16516	1105.95239	387.54398	1195.46545	1105.50928	154.86063	1234.76575	1208.21777	271.85611	1378.93262	953.02185	195.9874	1204.57288	878.35986	144.70543	1065.38318	889.41742	143.23055	951.44794	864.93274	181.24329	815.59912	873.6261	124.50286	830.33893	862.86798	139.4472	748.70148	846.56451	302.96616	1395.42822	1260.12195	253.95427	1208.75098	1379.47046	270.17642	1083.1239	1401.93115	368.22699	1003.91266	1419.61145	501.64417	973.94562	1385.26733	473.28796	940.98792	1421.75684	554.83838	912.85059	1418.15637	350.41327	923.08368	1024.40833	332.68283	924.45526	1242.81653	160.99574	931.49677	1058.10571	150.54587	946.22272	1200.36304	394.28308	600.29327	962.93201	431.45328	476.25958	991.53534	440.94135	288.60754	990.87079	504.14459	74.79147	1049.29956	481.03012	35.10386	1112.12915	648.10522	87.22052	1027.76782	202.04605	606.45648	1295.45801	165.08223	447.71249	1272.01416	49.67637	312.44278	1275.40967	-51.41327	129.16649	1229.02588	-109.49995	118.44434	1179.25012	58.31952	34.12105	1217.61487	397.61316	1688.95642	1099.198	-1973.2345	1023.54565	3101.85034	-2012.58655	1022.02783	3140.72974
